<svg viewBox="0 0 500 500" fill="#3875ED" xmlns="http://www.w3.org/2000/svg">
  <path d="M451.85 340c-1.2-4-4.21-7.64-6.87-10.87L444 328c-3.16-3.89-6.51-7.54-9.37-10.58-13.52-14.43-27.82-27.66-41.26-39.8-12.39-11.19-25.71-22.8-43.2-37.65-6.29-5.28-13.72-11.51-21.13-17.61-14.82-12.2-29.8-24.25-44.51-35.81-16-12.59-30.89-24-45.44-34.91-15.7-11.77-31.67-23.39-47.44-34.55-17.07-12.06-32.19-22.19-46.25-31-9.09-5.67-16.8-10.28-25-14.41A73.71 73.71 0 0 0 107.15 66c-1.89-.52-4.73-1.31-6.6.37a23.22 23.22 0 0 0-3.19 3.92c-.47.65-.92 1.3-1.38 1.89A226.11 226.11 0 0 0 66.42 122a222.76 222.76 0 0 0-17.27 112.34c2.25 20.48 6.38 38.37 12.64 54.71A235.91 235.91 0 0 0 89 340.42a217.24 217.24 0 0 0 37.06 40.66 241.27 241.27 0 0 0 47.53 31.13c15.1 7.67 32.75 13.6 54 18.13a201.54 201.54 0 0 0 42.12 4.3c4.4 0 8.84-.13 13.32-.39 20.24-1.17 39-4.59 55.69-10.17 21.2-7.06 37.92-14.84 52.62-24.48 18.6-12.19 32.45-23.62 43.58-36l2.09-2.3c2.61-2.86 5.31-5.82 7.76-8.92l5.68-7.17a13 13 0 0 0 .94-1.32h.07a.75.75 0 0 0 .34-.79 4.5 4.5 0 0 0 .05-3.1zM103.53 66.87a13.43 13.43 0 0 1 3.31.62 72 72 0 0 1 13 5.54c8.06 4.08 15.74 8.68 24.79 14.32 14 8.76 29.14 18.87 46.18 30.92 15.76 11.15 31.72 22.76 47.42 34.52 14.53 10.89 29.39 22.3 45.4 34.89a2483.55 2483.55 0 0 1 44.48 35.79c7.41 6.1 14.84 12.32 21.13 17.6 17.47 14.83 30.76 26.43 43.16 37.61 13.42 12.12 27.69 25.33 41.18 39.71 2.84 3 6.16 6.65 9.3 10.5l.94 1.15c2.57 3.11 5.48 6.64 6.59 10.34a3 3 0 0 1-.11 2.43c-2.3 1.07-5.37-.09-7.86-1l-.36-.14c-12.68-4.8-24.59-12.4-36.1-19.75l-1.43-.91c-12.19-7.78-24.77-16.19-38.46-25.72-10.84-7.55-22.22-15.71-35.81-25.7-13.17-9.67-26.08-19.48-35.86-26.94-10.94-8.35-22-17-32.94-25.66-13.83-11-25.23-20.19-35.89-28.94-10.25-8.47-21.25-17.7-34.59-29.05-10.62-9.06-21.35-18.5-32.8-28.86-12.51-11.32-22.66-21-31.92-30.31-5.52-5.57-10.39-10.81-14.92-16a98.38 98.38 0 0 1-6.46-8.25l-.24-.36c-1.6-2.31-3.57-5.17-2.91-7.75a3 3 0 0 1 1.78-.6zM443.6 351.48c-2.43 3.06-5.11 6-7.7 8.85l-2.09 2.3c-11 12.25-24.8 23.6-43.29 35.72-14.59 9.56-31.2 17.29-52.28 24.31-16.58 5.53-35.19 8.93-55.3 10.09a206.68 206.68 0 0 1-55-3.87c-21.1-4.51-38.64-10.4-53.62-18a240.69 240.69 0 0 1-47.24-30.93 216.22 216.22 0 0 1-36.81-40.38 234.27 234.27 0 0 1-27-51.05c-6.21-16.21-10.31-34-12.55-54.33A221.2 221.2 0 0 1 67.8 122.6a225 225 0 0 1 29.3-49.42c.47-.6.94-1.27 1.42-2s1-1.48 1.6-2.17c.25 2.55 1.95 5 3.28 6.94l.24.35a95.82 95.82 0 0 0 6.56 8.38c4.54 5.25 9.44 10.51 15 16.1 9.29 9.38 19.45 19 32 30.37 11.46 10.37 22.2 19.82 32.84 28.89 13.37 11.41 24.38 20.65 34.64 29.08 10.66 8.76 22.07 18 35.91 29 10.92 8.68 22 17.32 33 25.67 9.78 7.47 22.7 17.28 35.88 27 13.6 10 25 18.17 35.84 25.72 13.71 9.54 26.31 18 38.51 25.75l1.43.91c11.58 7.39 23.56 15 36.38 19.9l.36.13a18.47 18.47 0 0 0 6.3 1.57h.76l-5.45 6.71z"></path>
</svg>