<svg viewBox="0 0 500 500" fill="#33e0c8" xmlns="http://www.w3.org/2000/svg">
  <path d="M458.09 203a176 176 0 0 0-20.48-56.83 152 152 0 0 0-18.06-24.87c-6.71-7.73-14.75-14.17-21.76-19.6h-.05c-7.48-5-15.64-10.13-24.58-13.92-13.83-5.85-28.9-9.2-46-10.21a.47.47 0 0 0-.16 0h-.68l-2.69-.13-142.23-5.72a129.94 129.94 0 0 0-49.82 7.53c-18 6.43-35.31 17.81-50 32.88a149.48 149.48 0 0 0-32.15 50A159.93 159.93 0 0 0 39 223.39a136.24 136.24 0 0 0 14 56.93c9.52 19.11 22.49 34.81 38.53 46.66 4.7 3.47 9.77 6.52 14.67 9.47l96.74 58.4c3.23 1.95 6.52 4 9.7 6 11.06 6.93 22.49 14.1 34.76 18.73a133.86 133.86 0 0 0 47.51 8.8c4.12 0 8.25-.193 12.39-.58 19.17-1.8 38.59-8 57.71-18.49 16.48-9 32-21.81 46.2-38 12.47-14.24 23.35-31.49 32.31-51.28 7.61-16.79 12.94-36 15.85-57.09a194.41 194.41 0 0 0-1.28-59.94zM203.65 393.57l-96.75-58.4c-4.87-2.94-9.9-6-14.55-9.4-15.85-11.71-28.66-27.23-38.08-46.12a134.64 134.64 0 0 1-13.79-56.28 158.4 158.4 0 0 1 10.33-60.66 147.94 147.94 0 0 1 31.82-49.53C97.19 98.27 114.29 87 132.08 80.66a127.67 127.67 0 0 1 43.63-7.55c1.87 0 3.74 0 5.64.11l127 5.06a140.2 140.2 0 0 0-34.68 8.35 166.76 166.76 0 0 0-39.44 21.7A174.82 174.82 0 0 0 203 138.19a185.15 185.15 0 0 0-23.78 36 233.78 233.78 0 0 0-16.4 42.67 208.58 208.58 0 0 0-6.54 43.08A181.67 181.67 0 0 0 159 303c3 16.2 7.19 29.88 12.78 41.82a163.22 163.22 0 0 0 24.13 37.9A130.13 130.13 0 0 0 214.05 400l-.68-.43c-3.19-1.98-6.48-4.04-9.72-6zm254.17-130.82c-2.89 20.95-8.18 40-15.73 56.68-8.91 19.66-19.7 36.79-32.08 50.91-14.01 16.05-29.46 28.72-45.79 37.66-18.94 10.38-38.16 16.54-57.13 18.31a131.56 131.56 0 0 1-59.23-8.12 130.14 130.14 0 0 1-17.38-8.27.77.77 0 0 0-.26-.31c-14-8.93-24.54-17.78-33.21-27.83a161.16 161.16 0 0 1-23.91-37.56c-5.54-11.82-9.68-25.38-12.67-41.45a180.31 180.31 0 0 1-2.69-42.77 207.72 207.72 0 0 1 6.49-42.77 232.31 232.31 0 0 1 16.3-42.4 184 184 0 0 1 23.58-35.69 173.9 173.9 0 0 1 31-29.61A165.48 165.48 0 0 1 274.23 88a138.27 138.27 0 0 1 42.86-9c2.24-.1 4.54-.08 6.77-.07h2.43c17.24 1 32.41 4.27 46.28 10.14 8.82 3.74 16.9 8.83 24.32 13.77 6.95 5.38 14.91 11.76 21.53 19.38a150.44 150.44 0 0 1 17.88 24.63 174.18 174.18 0 0 1 20.31 56.35 192.93 192.93 0 0 1 1.21 59.55z"></path>
</svg>