<svg version="1.0" xmlns="http://www.w3.org/2000/svg"
 width="512.000000pt" height="512.000000pt" viewBox="0 0 512.000000 512.000000"
 preserveAspectRatio="xMidYMid meet">

<g transform="translate(0.000000,512.000000) scale(0.100000,-0.100000)"
fill="#000000" stroke="none">
<path d="M2170 5110 c-388 -30 -700 -114 -885 -239 -55 -38 -162 -152 -191
-204 -43 -77 -38 -138 24 -372 96 -359 121 -558 129 -1036 3 -191 3 -362 -1
-380 -6 -31 -14 -38 -101 -82 -382 -195 -581 -495 -510 -772 83 -324 483 -604
1070 -749 294 -72 463 -90 855 -90 342 0 426 6 670 50 507 92 958 313 1140
560 202 273 166 549 -104 802 -89 83 -318 234 -332 219 -6 -6 11 -264 31 -472
15 -158 14 -159 -54 -237 -122 -138 -365 -258 -652 -322 -170 -38 -332 -56
-547 -63 -173 -5 -194 -4 -211 11 -10 10 -21 25 -24 35 -7 29 19 80 45 85 13
2 113 9 223 15 493 27 835 129 1021 306 l63 60 -19 215 c-28 309 -40 715 -29
975 16 398 43 576 153 985 36 131 34 184 -5 243 -182 275 -722 450 -1419 462
-124 2 -277 0 -340 -5z m-728 -689 c192 -76 445 -143 690 -183 183 -30 662
-33 833 -5 159 26 398 90 517 138 186 75 197 79 215 72 52 -18 72 -83 35 -116
-50 -46 -383 -167 -564 -206 -332 -71 -718 -80 -1082 -26 -214 32 -472 101
-664 177 -84 33 -106 47 -118 71 -19 35 -5 78 29 95 31 15 28 15 109 -17z"/>
<path d="M1190 868 c-49 -26 -80 -74 -80 -125 0 -23 -6 -33 -19 -38 -32 -10
-79 -72 -87 -112 -10 -52 10 -160 42 -227 26 -55 84 -117 129 -138 13 -6 35
-32 49 -58 73 -133 222 -195 376 -155 127 33 276 122 565 340 208 156 214 159
355 161 140 2 154 -4 332 -139 303 -230 483 -339 607 -367 62 -15 150 -8 206
16 60 25 101 61 144 125 22 34 57 72 83 89 88 59 147 181 149 307 1 72 -19
117 -66 144 -32 19 -45 43 -45 86 0 33 -56 91 -100 104 -49 15 -102 5 -137
-26 -27 -22 -28 -28 -30 -122 -4 -145 -21 -154 -213 -108 -58 14 -193 55 -300
90 -350 114 -448 132 -565 102 -53 -14 -68 -14 -120 -1 -123 29 -208 15 -515
-83 -281 -90 -390 -121 -459 -129 -55 -6 -61 -4 -85 19 -24 24 -26 33 -26 115
0 76 -3 91 -21 111 -43 46 -102 53 -169 19z"/>
</g>
</svg>
