<svg viewBox="0 0 500 500" fill="#e1144b" xmlns="http://www.w3.org/2000/svg">
  <path d="M460.08 458a.82.82 0 0 0 0-.35L357 42.1a.85.85 0 0 0-.16-.28.83.83 0 0 0-.3-.18h-.07a.5.5 0 0 0-.13 0h-.22a1 1 0 0 0-.27.15L40.11 343.63v.05a.68.68 0 0 0-.14.23v.08a.65.65 0 0 0 0 .34.78.78 0 0 0 .16.28.75.75 0 0 0 .3.17l418.74 113.66a.69.69 0 0 0 .2 0 .82.82 0 0 0 .34-.09l.06-.06.08-.05a.92.92 0 0 0 .23-.24zM353 275.7L43.07 342.87 355.48 44.05 353 275.7zm.37 1.46L457.8 456.52l-414-112.27 309.57-67.09zm1.13-1.05l2.42-227.95 100.46 404.65-102.88-176.7z"></path>
</svg>